<svg 
          width="10.000000953674316" 
          height="15.999999046325684" fill="none" 
          xmlns="http://www.w3.org/2000/svg">
          <path d="M 9.595829010009766 13.978946685791016 C 9.830509603023529 14.207518100738525 9.960887083783746 14.508269667625427 9.94784927368164 14.821051597595215 C 9.94784927368164 15.133833527565002 9.817471086978912 15.422555446624756 9.56975269317627 15.651126861572266 C 9.335072100162506 15.867668211460114 9.009127140045166 15.999999046325684 8.670144081115723 15.999999046325684 C 8.33116102218628 15.999999046325684 8.005215227603912 15.891728460788727 7.7574968338012695 15.675187110900879 L 0.37809649109840393 8.866165161132812 C 0.2607561945915222 8.757894486188889 0.16949153691530228 8.625563964247704 0.10430248081684113 8.481203079223633 C 0.039113424718379974 8.336842194199562 0 8.180451214313507 0 8.024060249328613 C 0 7.8676692843437195 0.039113424718379974 7.711278259754181 0.10430248081684113 7.554887294769287 C 0.16949153691530228 7.410526409745216 0.2607561945915222 7.278195410966873 0.37809649109840393 7.169924736022949 L 7.7574968338012695 0.36090224981307983 C 7.874837130308151 0.2526315748691559 8.018253698945045 0.1563909687101841 8.174707412719727 0.09624059498310089 C 8.344198942184448 0.036090221256017685 8.51369023323059 0 8.683181762695312 0 C 8.852673292160034 0 9.035202398896217 0.024060148745775223 9.191656112670898 0.08421052247285843 C 9.34810982644558 0.14436089619994164 9.491526260972023 0.24060148000717163 9.621904373168945 0.3488721549510956 C 9.739244669675827 0.45714282989501953 9.83050949126482 0.6015037447214127 9.895698547363281 0.7458646297454834 C 9.973925404250622 0.8902255147695541 10.000000953674316 1.0466164201498032 10.000000953674316 1.21503746509552 C 10.000000953674316 1.3714284300804138 9.960887603461742 1.5278194099664688 9.895698547363281 1.6721802949905396 C 9.83050949126482 1.8165411800146103 9.726207122206688 1.9488721117377281 9.595829010009766 2.0691728591918945 L 3.1421124935150146 8.024060249328613 L 4.367666244506836 9.14285659790039 L 9.595829010009766 13.978946685791016 Z" fill="rgb(189.00000393390656,52.000000700354576,93.00000205636024)"/>
        </svg>